<?xml version="1.0" encoding="UTF-8" standalone="no"?>
<!-- Created with Inkscape (http://www.inkscape.org/) -->

<svg
   xmlns:dc="http://purl.org/dc/elements/1.1/"
   xmlns:cc="http://creativecommons.org/ns#"
   xmlns:rdf="http://www.w3.org/1999/02/22-rdf-syntax-ns#"
   xmlns:svg="http://www.w3.org/2000/svg"
   xmlns="http://www.w3.org/2000/svg"
   xmlns:xlink="http://www.w3.org/1999/xlink"
   xmlns:sodipodi="http://sodipodi.sourceforge.net/DTD/sodipodi-0.dtd"
   xmlns:inkscape="http://www.inkscape.org/namespaces/inkscape"
   width="1000"
   height="600"
   id="svg2"
   version="1.1"
   inkscape:version="0.48.2 r9819"
   sodipodi:docname="arttp.svg"
   inkscape:export-filename="/home/blue112/git/arhythmtothepast/lib/gfx/titlescreen.png"
   inkscape:export-xdpi="89"
   inkscape:export-ydpi="89">
  <defs
     id="defs4">
    <marker
       inkscape:stockid="Arrow1Sstart"
       orient="auto"
       refY="0.0"
       refX="0.0"
       id="Arrow1Sstart"
       style="overflow:visible">
      <path
         id="path4035"
         d="M 0.0,0.0 L 5.0,-5.0 L -12.5,0.0 L 5.0,5.0 L 0.0,0.0 z "
         style="fill-rule:evenodd;stroke:#000000;stroke-width:1.0pt;marker-start:none"
         transform="scale(0.2) translate(6,0)" />
    </marker>
    <marker
       inkscape:stockid="Arrow1Lend"
       orient="auto"
       refY="0.0"
       refX="0.0"
       id="Arrow1Lend"
       style="overflow:visible;">
      <path
         id="path4026"
         d="M 0.0,0.0 L 5.0,-5.0 L -12.5,0.0 L 5.0,5.0 L 0.0,0.0 z "
         style="fill-rule:evenodd;stroke:#000000;stroke-width:1.0pt;marker-start:none;"
         transform="scale(0.8) rotate(180) translate(12.5,0)" />
    </marker>
    <linearGradient
       id="linearGradient4006">
      <stop
         id="stop4008"
         offset="0"
         style="stop-color:#2b4f5c;stop-opacity:1;" />
      <stop
         style="stop-color:#3e479d;stop-opacity:0.80784315;"
         offset="0.5"
         id="stop4012" />
      <stop
         id="stop4010"
         offset="1"
         style="stop-color:#5294df;stop-opacity:0.42657343;" />
    </linearGradient>
    <linearGradient
       id="linearGradient3998">
      <stop
         style="stop-color:#000000;stop-opacity:1;"
         offset="0"
         id="stop4000" />
      <stop
         style="stop-color:#000000;stop-opacity:0;"
         offset="1"
         id="stop4002" />
    </linearGradient>
    <linearGradient
       id="linearGradient4115">
      <stop
         id="stop4117"
         offset="0"
         style="stop-color:#ffffff;stop-opacity:1;" />
      <stop
         style="stop-color:#5e6f5e;stop-opacity:1;"
         offset="0.44186386"
         id="stop4119" />
      <stop
         id="stop4121"
         offset="1"
         style="stop-color:#000000;stop-opacity:1;" />
    </linearGradient>
    <linearGradient
       id="linearGradient3818">
      <stop
         style="stop-color:#ffffff;stop-opacity:1;"
         offset="0"
         id="stop3820" />
      <stop
         id="stop3826"
         offset="0.44186386"
         style="stop-color:#ffffff;stop-opacity:1;" />
      <stop
         style="stop-color:#000000;stop-opacity:1;"
         offset="1"
         id="stop3822" />
    </linearGradient>
    <linearGradient
       id="linearGradient3771">
      <stop
         style="stop-color:#ff0000;stop-opacity:1;"
         offset="0"
         id="stop3773" />
      <stop
         id="stop3785"
         offset="0.28967896"
         style="stop-color:#08ff00;stop-opacity:1;" />
      <stop
         id="stop3783"
         offset="0.32310346"
         style="stop-color:#bede46;stop-opacity:1;" />
      <stop
         id="stop3781"
         offset="0.5"
         style="stop-color:#ff0000;stop-opacity:1;" />
      <stop
         id="stop3779"
         offset="0.75"
         style="stop-color:#ff0000;stop-opacity:1;" />
      <stop
         style="stop-color:#ff0000;stop-opacity:1;"
         offset="1"
         id="stop3775" />
    </linearGradient>
    <linearGradient
       inkscape:collect="always"
       xlink:href="#linearGradient3771"
       id="linearGradient3777"
       x1="-1381.5626"
       y1="870.40692"
       x2="-283.07162"
       y2="870.40692"
       gradientUnits="userSpaceOnUse" />
    <linearGradient
       inkscape:collect="always"
       xlink:href="#linearGradient3771"
       id="linearGradient3812"
       gradientUnits="userSpaceOnUse"
       x1="-1381.5626"
       y1="870.40692"
       x2="-283.07162"
       y2="870.40692" />
    <radialGradient
       inkscape:collect="always"
       xlink:href="#linearGradient3818"
       id="radialGradient3824"
       cx="400"
       cy="752.36218"
       fx="400"
       fy="752.36218"
       r="400"
       gradientTransform="matrix(0.6897673,0,-1.7194838e-8,0.5783403,124.09309,317.24082)"
       gradientUnits="userSpaceOnUse" />
    <linearGradient
       inkscape:collect="always"
       xlink:href="#linearGradient3818"
       id="linearGradient3915"
       x1="21.880779"
       y1="575.11865"
       x2="802.01276"
       y2="575.11865"
       gradientUnits="userSpaceOnUse" />
    <radialGradient
       inkscape:collect="always"
       xlink:href="#linearGradient3818"
       id="radialGradient3975"
       gradientUnits="userSpaceOnUse"
       gradientTransform="matrix(0.6897673,0,-1.7194838e-8,0.5783403,124.09309,317.24082)"
       cx="400"
       cy="752.36218"
       fx="400"
       fy="752.36218"
       r="400" />
    <radialGradient
       inkscape:collect="always"
       xlink:href="#linearGradient3818"
       id="radialGradient3048"
       gradientUnits="userSpaceOnUse"
       gradientTransform="matrix(0.08230175,0,0,0.0690065,198.88889,700.44433)"
       cx="400"
       cy="752.36218"
       fx="400"
       fy="752.36218"
       r="400" />
    <filter
       inkscape:collect="always"
       id="filter4153"
       color-interpolation-filters="sRGB">
      <feGaussianBlur
         inkscape:collect="always"
         stdDeviation="1.1867958"
         id="feGaussianBlur4155" />
    </filter>
    <filter
       inkscape:collect="always"
       id="filter4176"
       color-interpolation-filters="sRGB">
      <feGaussianBlur
         inkscape:collect="always"
         stdDeviation="1.9192898"
         id="feGaussianBlur4178" />
    </filter>
    <filter
       inkscape:collect="always"
       id="filter4180"
       color-interpolation-filters="sRGB">
      <feGaussianBlur
         inkscape:collect="always"
         stdDeviation="1.9192898"
         id="feGaussianBlur4182" />
    </filter>
    <filter
       inkscape:collect="always"
       id="filter4196"
       color-interpolation-filters="sRGB">
      <feGaussianBlur
         inkscape:collect="always"
         stdDeviation="0.5648692"
         id="feGaussianBlur4198" />
    </filter>
    <radialGradient
       inkscape:collect="always"
       xlink:href="#linearGradient3818-8"
       id="radialGradient3454-5"
       gradientUnits="userSpaceOnUse"
       gradientTransform="matrix(0.06139865,0,0,0.05148014,23.907442,713.6305)"
       cx="400"
       cy="752.36218"
       fx="400"
       fy="752.36218"
       r="400" />
    <linearGradient
       id="linearGradient3818-8">
      <stop
         style="stop-color:#ffffff;stop-opacity:1;"
         offset="0"
         id="stop3820-1" />
      <stop
         id="stop3826-3"
         offset="0.44186386"
         style="stop-color:#ffffff;stop-opacity:1;" />
      <stop
         style="stop-color:#000000;stop-opacity:1;"
         offset="1"
         id="stop3822-1" />
    </linearGradient>
    <filter
       inkscape:collect="always"
       id="filter3994">
      <feGaussianBlur
         inkscape:collect="always"
         stdDeviation="0.65488281"
         id="feGaussianBlur3996" />
    </filter>
    <linearGradient
       inkscape:collect="always"
       xlink:href="#linearGradient4006"
       id="linearGradient4004"
       x1="8.4282808"
       y1="1018.7908"
       x2="223.52484"
       y2="1018.7908"
       gradientUnits="userSpaceOnUse" />
    <linearGradient
       inkscape:collect="always"
       xlink:href="#linearGradient4006"
       id="linearGradient4846"
       gradientUnits="userSpaceOnUse"
       x1="8.4282808"
       y1="1018.7908"
       x2="223.52484"
       y2="1018.7908"
       gradientTransform="translate(106,2)" />
    <linearGradient
       inkscape:collect="always"
       xlink:href="#linearGradient4006"
       id="linearGradient3943"
       x1="4.8750048"
       y1="983.36218"
       x2="225.62498"
       y2="983.36218"
       gradientUnits="userSpaceOnUse"
       gradientTransform="matrix(0.94345579,0,0,1,12.67297,0)" />
    <linearGradient
       inkscape:collect="always"
       xlink:href="#linearGradient4006"
       id="linearGradient3951"
       x1="1.87501"
       y1="983.36218"
       x2="23.625015"
       y2="983.36218"
       gradientUnits="userSpaceOnUse" />
    <filter
       inkscape:collect="always"
       id="filter3944">
      <feGaussianBlur
         inkscape:collect="always"
         stdDeviation="2.9881405"
         id="feGaussianBlur3946" />
    </filter>
    <filter
       inkscape:collect="always"
       id="filter4097">
      <feGaussianBlur
         inkscape:collect="always"
         stdDeviation="5.9762811"
         id="feGaussianBlur4099" />
    </filter>
  </defs>
  <sodipodi:namedview
     id="base"
     pagecolor="#ffffff"
     bordercolor="#666666"
     borderopacity="1.0"
     inkscape:pageopacity="0.0"
     inkscape:pageshadow="2"
     inkscape:zoom="2.8284272"
     inkscape:cx="599.61389"
     inkscape:cy="508.00392"
     inkscape:document-units="px"
     inkscape:current-layer="layer1"
     showgrid="false"
     inkscape:window-width="1920"
     inkscape:window-height="1026"
     inkscape:window-x="0"
     inkscape:window-y="26"
     inkscape:window-maximized="1"
     showguides="true"
     inkscape:guide-bbox="true">
    <sodipodi:guide
       orientation="0,1"
       position="400,57"
       id="guide4848" />
    <sodipodi:guide
       orientation="0,1"
       position="372,27"
       id="guide4850" />
  </sodipodi:namedview>
  <metadata
     id="metadata7">
    <rdf:RDF>
      <cc:Work
         rdf:about="">
        <dc:format>image/svg+xml</dc:format>
        <dc:type
           rdf:resource="http://purl.org/dc/dcmitype/StillImage" />
        <dc:title></dc:title>
      </cc:Work>
    </rdf:RDF>
  </metadata>
  <g
     inkscape:label="Calque 1"
     inkscape:groupmode="layer"
     id="layer1"
     transform="translate(0,-452.36218)">
    <rect
       style="fill:#000000;fill-opacity:1;stroke:none"
       id="rect3977"
       width="1000"
       height="600"
       x="0"
       y="452.36218" />
    <g
       id="g3881"
       style="fill:none;filter:url(#filter3893)">
      <text
         xml:space="preserve"
         style="font-size:24.03165627px;font-style:normal;font-variant:normal;font-weight:normal;font-stretch:normal;line-height:125%;letter-spacing:0px;word-spacing:0px;fill:none;stroke:none;font-family:Arial;-inkscape-font-specification:Arial"
         x="37.508015"
         y="459.96017"
         id="text3883"
         sodipodi:linespacing="125%"
         transform="scale(0.8871176,1.1272463)"><tspan
           sodipodi:role="line"
           id="tspan3885"
           x="37.508015"
           y="459.96017"
           style="font-size:90.11871338px;font-style:normal;font-variant:normal;font-weight:normal;font-stretch:normal;fill:none;font-family:Visitor TT2 BRK;-inkscape-font-specification:Visitor TT2 BRK">A </tspan><tspan
           sodipodi:role="line"
           x="37.508015"
           y="572.60858"
           id="tspan3887"
           style="font-size:90.11871338px;font-style:normal;font-variant:normal;font-weight:normal;font-stretch:normal;fill:none;font-family:Visitor TT2 BRK;-inkscape-font-specification:Visitor TT2 BRK" /></text>
      <text
         xml:space="preserve"
         style="font-size:84.05610657px;font-style:normal;font-variant:normal;font-weight:normal;font-stretch:normal;line-height:125%;letter-spacing:0px;word-spacing:0px;fill:none;stroke:none;font-family:Visitor TT2 BRK;-inkscape-font-specification:Visitor TT2 BRK"
         x="430.99374"
         y="619.85577"
         id="text3889"
         sodipodi:linespacing="125%"
         transform="scale(0.9235531,1.0827748)"><tspan
           sodipodi:role="line"
           id="tspan3891"
           x="430.99374"
           y="619.85577"
           style="font-style:normal;font-variant:normal;font-weight:normal;font-stretch:normal;fill:none;font-family:Visitor TT2 BRK;-inkscape-font-specification:Visitor TT2 BRK">To The Past</tspan></text>
    </g>
    <g
       id="g3874"
       style="filter:url(#filter4153)">
      <text
         transform="scale(0.8871176,1.1272463)"
         sodipodi:linespacing="125%"
         id="text2985"
         y="459.96017"
         x="37.508015"
         style="font-size:24.03165627px;font-style:normal;font-variant:normal;font-weight:normal;font-stretch:normal;line-height:125%;letter-spacing:0px;word-spacing:0px;fill:#ffffff;fill-opacity:1;stroke:none;font-family:Arial;-inkscape-font-specification:Arial"
         xml:space="preserve"><tspan
           style="font-size:90.11871338px;font-style:normal;font-variant:normal;font-weight:normal;font-stretch:normal;fill:#ffffff;fill-opacity:1;font-family:Visitor TT2 BRK;-inkscape-font-specification:Visitor TT2 BRK"
           y="459.96017"
           x="37.508015"
           id="tspan2987"
           sodipodi:role="line">A </tspan><tspan
           style="font-size:90.11871338px;font-style:normal;font-variant:normal;font-weight:normal;font-stretch:normal;fill:#ffffff;fill-opacity:1;font-family:Visitor TT2 BRK;-inkscape-font-specification:Visitor TT2 BRK"
           id="tspan2989"
           y="572.60858"
           x="37.508015"
           sodipodi:role="line" /></text>
      <text
         transform="scale(0.9235531,1.0827748)"
         sodipodi:linespacing="125%"
         id="text2991"
         y="619.85577"
         x="430.99374"
         style="font-size:84.05610657px;font-style:normal;font-variant:normal;font-weight:normal;font-stretch:normal;line-height:125%;letter-spacing:0px;word-spacing:0px;fill:#ffffff;fill-opacity:1;stroke:none;font-family:Visitor TT2 BRK;-inkscape-font-specification:Visitor TT2 BRK"
         xml:space="preserve"><tspan
           style="font-style:normal;font-variant:normal;font-weight:normal;font-stretch:normal;fill:#ffffff;fill-opacity:1;font-family:Visitor TT2 BRK;-inkscape-font-specification:Visitor TT2 BRK"
           y="619.85577"
           x="430.99374"
           id="tspan2993"
           sodipodi:role="line">To The Past</tspan></text>
    </g>
    <g
       transform="matrix(0.43219142,0,0,0.43219142,691.09892,191.28028)"
       style="font-size:76.37631989px;font-style:normal;font-variant:normal;font-weight:normal;font-stretch:normal;line-height:125%;letter-spacing:0px;word-spacing:0px;fill:url(#linearGradient3812);fill-opacity:1;stroke:none;font-family:Arial;-inkscape-font-specification:Arial"
       id="text3077">
      <path
         d="m -1189.4305,952.83347 -62.6783,-55.76268 c 18.2711,-11.29572 25.3762,-32.87486 18.8081,-56.61434 -9.7757,-35.33319 -42.2623,-50.71309 -82.2881,-39.63898 l -65.9738,18.25321 48.0388,173.62963 53.8279,-14.89278 -13.4416,-48.58318 38.5614,41.63321 65.1456,-18.02409 m -72.0338,-127.16989 c 1.6038,5.79685 -1.9902,12.14031 -7.7871,13.74415 -5.7968,1.60384 -11.7115,-1.51448 -13.4681,-7.86341 -1.6038,-5.79685 1.7905,-11.78789 7.5874,-13.39173 5.7968,-1.60384 12.0639,1.71414 13.6678,7.51099 m -25.1502,-8.19734 c 1.7566,6.34894 -1.9902,12.14031 -7.787,13.74415 -5.7969,1.60384 -11.7116,-1.51447 -13.4682,-7.8634 -1.6038,-5.79685 1.7142,-12.06394 7.511,-13.66778 5.5208,-1.52746 12.2167,2.26623 13.7442,7.78703 m 29.2993,43.60145 c -5.7969,1.60383 -12.1403,-1.99019 -13.7442,-7.78704 -1.6802,-6.07289 2.0666,-11.86426 7.8635,-13.4681 5.7968,-1.60384 11.7878,1.79051 13.3917,7.58736 1.6038,5.79685 -1.9902,12.14031 -7.511,13.66778 m -55.353,-37.87894 c 1.5275,5.52081 -1.7905,11.7879 -7.5873,13.39174 -5.7969,1.60383 -12.1403,-1.99019 -13.7442,-7.78704 -1.6038,-5.79685 2.1429,-11.58822 7.9398,-13.19206 6.0729,-1.68021 11.7879,1.79051 13.3917,7.58736 m 52.0305,63.46338 c -6.3489,1.75659 -12.1403,-1.99018 -13.7441,-7.78703 -1.5275,-5.52081 2.0666,-11.86427 7.8634,-13.4681 5.7969,-1.60384 11.7879,1.79051 13.3917,7.58736 1.6039,5.79685 -1.7141,12.06394 -7.511,13.66777 m -46.0943,-6.56303 -8.7829,-31.74469 4.6927,-1.29834 c 12.6978,-3.51317 20.4979,-0.025 23.3237,10.18853 2.9786,10.76557 -1.2908,17.89024 -13.4366,21.25066 l -5.7969,1.60384 m -31.7313,-49.16918 c 1.6039,5.79685 -1.5144,11.71152 -7.5873,13.39173 -5.7969,1.60384 -12.064,-1.71414 -13.6678,-7.51099 -1.6038,-5.79685 1.9902,-12.14031 7.787,-13.74414 6.0729,-1.68021 11.8643,2.06655 13.4681,7.8634 m -0.4846,39.06352 c -5.7969,1.60384 -11.9876,-1.4381 -13.7442,-7.78703 -1.6038,-5.79685 1.9902,-12.14031 7.7871,-13.74414 6.0729,-1.68021 11.8642,2.06655 13.4681,7.8634 1.7566,6.34893 -1.4381,11.98756 -7.511,13.66777 m 69.6417,22.93029 c 1.6038,5.79685 -1.9902,12.14031 -7.7871,13.74414 -5.7968,1.60384 -11.8642,-2.06655 -13.4681,-7.8634 -1.6038,-5.79685 2.0666,-11.86427 7.5874,-13.39173 5.7969,-1.60384 11.9876,1.4381 13.6678,7.51099 m 17.6217,23.95014 c 1.6038,5.79685 -1.4381,11.98756 -7.787,13.74415 -5.7969,1.60383 -11.8643,-2.06656 -13.4681,-7.86341 -1.6039,-5.79685 1.9901,-12.14031 7.5109,-13.66777 6.349,-1.75659 11.9876,1.4381 13.7442,7.78703 m -80.1607,-21.20864 c -5.7968,1.60384 -12.1403,-1.99018 -13.7441,-7.78703 -1.6803,-6.07289 2.0665,-11.86427 7.8634,-13.4681 6.0729,-1.68021 11.7115,1.51447 13.3917,7.58736 1.6038,5.79685 -1.4381,11.98756 -7.511,13.66777 m 29.9083,17.87624 c -6.349,1.75658 -11.9876,-1.4381 -13.7442,-7.78704 -1.6038,-5.79685 1.5145,-11.71152 7.8634,-13.4681 5.7969,-1.60384 11.7879,1.79051 13.3918,7.58736 1.7566,6.34893 -1.7142,12.06394 -7.511,13.66778 m 70.4818,25.96673 c 1.6038,5.79685 -1.9902,12.14031 -7.7871,13.74414 -6.0729,1.68021 -11.8642,-2.06655 -13.4681,-7.8634 -1.6038,-5.79685 1.7142,-12.06394 7.511,-13.66777 5.7969,-1.60384 11.9876,1.4381 13.7442,7.78703 m -85.7764,-31.83895 c 1.6038,5.79685 -1.5145,11.71152 -7.5874,13.39173 -5.7968,1.60384 -12.0639,-1.71414 -13.6677,-7.51099 -1.6039,-5.79685 1.9902,-12.14031 7.787,-13.74414 6.0729,-1.68021 11.8643,2.06655 13.4681,7.8634 m -0.4846,39.06352 c -5.7969,1.60384 -11.9876,-1.4381 -13.7442,-7.78703 -1.6038,-5.79685 1.9902,-12.14031 7.787,-13.74414 6.0729,-1.68021 11.8643,2.06655 13.4682,7.8634 1.7565,6.34893 -1.4382,11.98756 -7.511,13.66777 m 7.1027,25.67179 c -5.7969,1.60384 -12.1403,-1.99018 -13.7442,-7.78703 -1.6038,-5.79685 2.0666,-11.86427 7.8634,-13.4681 6.0729,-1.68021 11.7879,1.79051 13.3918,7.58736 1.6038,5.79685 -1.4381,11.98756 -7.511,13.66777"
         style="font-size:286.41119385px;font-style:normal;font-variant:normal;font-weight:normal;font-stretch:normal;fill:#ff2200;fill-opacity:1;font-family:Budmo;-inkscape-font-specification:Budmo"
         id="path3788"
         inkscape:connector-curvature="0" />
      <path
         d="m -1026.1994,922.09748 -25.4269,-178.34923 -55.2911,7.88272 9.2168,64.64806 -40.2633,5.74024 -9.2167,-64.64805 -55.2911,7.88273 25.4268,178.34923 55.2911,-7.88273 -9.5805,-67.19995 40.2632,-5.74024 9.5806,67.19995 55.2911,-7.88273 m -38.3549,-153.36152 c 0.8489,5.95442 -3.2842,11.46188 -9.2386,12.31079 -5.9544,0.84891 -11.7454,-3.24371 -12.5943,-9.19813 -0.849,-5.95442 3.5272,-11.78585 9.4816,-12.63476 5.9545,-0.84891 11.5023,3.56768 12.3513,9.5221 m -5.4791,38.68039 c -5.9545,0.84891 -11.7051,-2.96016 -12.6348,-9.48167 -0.8489,-5.95442 3.5272,-11.78586 9.4817,-12.63477 5.9544,-0.8489 11.5023,3.56768 12.3512,9.5221 0.9297,6.52151 -3.2437,11.74543 -9.1981,12.59434 m 3.7594,26.3696 c -5.9544,0.84891 -11.7858,-3.52725 -12.6348,-9.48167 -0.8893,-6.23796 3.5677,-11.50231 9.5221,-12.35122 5.9545,-0.84891 11.4215,3.00059 12.3108,9.23855 0.8489,5.95442 -3.2437,11.74544 -9.1981,12.59434 m 12.9576,13.77526 c 0.8489,5.95442 -3.2841,11.46189 -9.2386,12.3108 -5.9544,0.84891 -11.7454,-3.24371 -12.5943,-9.19813 -0.8489,-5.95442 3.5273,-11.78586 9.4817,-12.63477 5.9544,-0.8489 11.5023,3.56768 12.3512,9.5221 m -33.6193,1.61066 c -5.9545,0.8489 -11.705,-2.96017 -12.6348,-9.48168 -0.8489,-5.95442 3.5273,-11.78586 9.4817,-12.63476 6.2379,-0.88934 11.5023,3.56767 12.3512,9.52209 0.9298,6.52151 -2.9602,11.70501 -9.1981,12.59435 m -74.0236,-66.69167 c 0.8489,5.95442 -3.2842,11.46189 -9.2386,12.3108 -5.9544,0.84891 -11.7454,-3.24371 -12.5943,-9.19813 -0.8489,-5.95442 3.5272,-11.78586 9.4816,-12.63477 5.9545,-0.84891 11.5024,3.56768 12.3513,9.5221 m 102.1638,103.76141 c -5.9544,0.84891 -11.705,-2.96017 -12.6348,-9.48167 -0.8489,-5.95442 3.5273,-11.78586 9.4817,-12.63477 5.9544,-0.84891 11.5023,3.56768 12.3512,9.5221 0.9298,6.52151 -3.2437,11.74543 -9.1981,12.59434 m -44.1775,-46.06633 c 0.9297,6.52151 -3.5273,11.78586 -9.4817,12.63477 -5.9544,0.84891 -11.705,-2.96017 -12.6348,-9.48168 -0.8489,-5.95442 3.5273,-11.78585 9.4817,-12.63476 5.9544,-0.84891 11.7859,3.52725 12.6348,9.48167 m -63.4654,-19.01468 c -5.9545,0.84891 -11.705,-2.96017 -12.6348,-9.48168 -0.8489,-5.95442 3.5273,-11.78585 9.4817,-12.63476 5.9544,-0.84891 11.5023,3.56768 12.3512,9.5221 0.9297,6.5215 -3.2437,11.74543 -9.1981,12.59434 m 111.4023,91.45061 c -5.9544,0.84891 -11.7858,-3.52725 -12.6347,-9.48167 -0.8489,-5.95442 3.5677,-11.50232 9.5221,-12.35122 5.9544,-0.84891 11.4619,3.28413 12.3108,9.23855 0.8489,5.95442 -3.2437,11.74543 -9.1982,12.59434 m -82.3705,-56.24383 c -6.5215,0.92976 -11.705,-2.96017 -12.6347,-9.48167 -0.849,-5.95442 2.9601,-11.70501 9.4816,-12.63477 5.9544,-0.84891 11.5023,3.56768 12.3512,9.5221 0.9298,6.52151 -3.2437,11.74543 -9.1981,12.59434 m -25.2724,-8.83718 c -5.9544,0.84891 -11.7858,-3.52726 -12.6347,-9.48168 -0.8894,-6.23796 3.5676,-11.50231 9.5221,-12.35122 5.9544,-0.84891 11.4214,3.00059 12.3107,9.23856 0.849,5.95442 -3.2437,11.74543 -9.1981,12.59434 m 12.9576,13.77526 c 0.8489,5.95442 -3.2841,11.46189 -9.2386,12.31079 -5.9544,0.84891 -11.7454,-3.24371 -12.5943,-9.19813 -0.8489,-5.95442 3.5273,-11.78585 9.4817,-12.63476 5.9544,-0.84891 11.5023,3.56768 12.3512,9.5221 m -5.4791,38.68039 c -5.9544,0.84891 -11.705,-2.96016 -12.6348,-9.48167 -0.8489,-5.95442 3.5273,-11.78586 9.4817,-12.63476 5.9544,-0.84891 11.5023,3.56767 12.3512,9.52209 0.9298,6.52151 -3.2437,11.74544 -9.1981,12.59434 m 3.7595,26.36961 c -5.9545,0.8489 -11.7859,-3.52726 -12.6348,-9.48168 -0.8489,-5.95442 3.5677,-11.50231 9.5221,-12.35122 5.9544,-0.84891 11.4619,3.28413 12.3108,9.23855 0.8489,5.95442 -3.2437,11.74544 -9.1981,12.59435"
         style="font-size:286.41119385px;font-style:normal;font-variant:normal;font-weight:normal;font-stretch:normal;fill:#ff9200;fill-opacity:1;font-family:Budmo;-inkscape-font-specification:Budmo"
         id="path3790"
         inkscape:connector-curvature="0" />
      <path
         d="m -944.76963,950.34793 23.96173,-76.53166 85.62537,-77.93341 -60.67867,-18.99823 -36.41439,39.61944 -7.31799,-53.31186 -60.67872,-18.99823 25.89224,112.84908 -23.96173,76.53166 53.57216,16.77321 m 75.05185,-145.77002 c -1.96828,6.28652 -8.25742,9.11937 -13.99729,7.32224 -5.73987,-1.79713 -9.0172,-7.62519 -7.04891,-13.91172 1.79713,-5.73986 7.89852,-8.93161 13.63839,-7.13449 5.46654,1.71156 9.11936,8.25743 7.40781,13.72397 m -19.83056,20.20182 c -1.8827,6.01319 -7.62519,9.01719 -13.63839,7.13449 -5.73986,-1.79713 -9.29052,-7.71077 -7.40781,-13.72397 1.79712,-5.73987 8.25742,-9.11937 13.99729,-7.32224 6.0132,1.88271 8.84604,8.17185 7.04891,13.91172 m -35.38224,26.73726 c -5.73987,-1.79713 -9.29052,-7.71077 -7.32224,-13.9973 1.79713,-5.73986 8.25743,-9.11936 13.9973,-7.32224 5.73986,1.79713 8.84604,8.17185 7.04891,13.91172 -1.96829,6.28652 -7.9841,9.20495 -13.72397,7.40782 m -29.24535,-73.38256 c -1.96828,6.28652 -8.25742,9.11937 -13.99729,7.32224 -5.73987,-1.79713 -9.0172,-7.62519 -7.04892,-13.91172 1.79713,-5.73987 7.89852,-8.93162 13.63839,-7.13449 5.46654,1.71155 9.11937,8.25743 7.40782,13.72397 m 5.04223,27.98938 c -1.88271,6.01319 -8.17185,8.84604 -13.91172,7.04891 -5.73987,-1.79713 -9.01719,-7.62519 -7.13449,-13.63839 1.79713,-5.73987 7.9841,-9.20495 13.72397,-7.40782 5.73987,1.79713 9.11937,8.25743 7.32224,13.9973 m -8.59616,35.12386 c -5.73987,-1.79712 -9.56385,-7.79634 -7.59557,-14.08287 1.79713,-5.73987 8.25743,-9.11937 13.9973,-7.32224 6.01319,1.88271 8.84604,8.17185 7.04891,13.91172 -1.96829,6.28652 -7.43745,9.3761 -13.45064,7.49339 m 22.40503,21.42075 c -1.96829,6.28652 -7.71077,9.29052 -13.9973,7.32224 -5.73987,-1.79713 -9.01719,-7.6252 -7.04891,-13.91172 1.79713,-5.73987 7.89852,-8.93162 13.63839,-7.13449 6.28652,1.96828 9.20494,7.9841 7.40782,13.72397 m -9.32796,29.79268 c -1.79713,5.73987 -7.6252,9.01719 -13.91172,7.04891 -5.73987,-1.79713 -8.93162,-7.89852 -7.13449,-13.63839 1.79713,-5.73987 7.9841,-9.20494 13.72397,-7.40782 6.28652,1.96829 9.11936,8.25743 7.32224,13.9973 m -8.64334,27.60606 c -1.79713,5.73987 -7.6252,9.0172 -13.91172,7.04891 -5.73987,-1.79712 -8.93162,-7.89852 -7.13449,-13.63839 1.96828,-6.28652 7.9841,-9.20494 13.72397,-7.40781 6.28652,1.96828 9.29052,7.71077 7.32224,13.99729"
         style="font-size:286.41119385px;font-style:normal;font-variant:normal;font-weight:normal;font-stretch:normal;fill:#ffb500;fill-opacity:1;font-family:Budmo;-inkscape-font-specification:Budmo"
         id="path3792"
         inkscape:connector-curvature="0" />
      <path
         d="m -747.52553,982.47403 -25.43427,-130.73 46.10692,-8.97036 -8.97036,-46.10693 -146.75496,28.55202 8.97036,46.10693 46.10693,-8.97037 25.43427,130.72999 54.54111,-10.61128 m 6.23818,-161.4017 c 1.14865,5.90393 -2.98202,11.66787 -8.88595,12.81651 -6.18507,1.20334 -11.61316,-2.70088 -12.76181,-8.60481 -1.14864,-5.90393 2.36505,-11.83961 8.55012,-13.04295 5.90393,-1.14865 11.949,2.92732 13.09764,8.83125 m -26.14599,5.08686 c 1.14864,5.90393 -2.98203,11.66786 -8.88596,12.8165 -5.90393,1.14865 -11.8943,-2.64618 -13.04295,-8.55011 -1.14864,-5.90393 2.92733,-11.949 8.83126,-13.09765 5.90393,-1.14864 11.949,2.92733 13.09765,8.83126 m -26.146,5.08685 c 1.14864,5.90393 -2.70089,11.61317 -8.60482,12.76181 -6.4662,1.25804 -11.8943,-2.64618 -13.04295,-8.55011 -1.14864,-5.90393 2.36505,-11.83961 8.83126,-13.09765 5.90393,-1.14864 11.66786,2.98202 12.81651,8.88595 m -26.146,5.08685 c 1.14864,5.90393 -2.41975,11.55848 -8.88595,12.81651 -5.90393,1.14865 -11.61317,-2.70088 -12.76181,-8.60481 -1.14865,-5.90393 2.64618,-11.89431 8.55011,-13.04295 6.46621,-1.25804 11.949,2.92733 13.09765,8.83125 m 22.62804,33.82096 c -6.46621,1.25804 -11.83961,-2.36505 -13.09765,-8.83125 -1.14864,-5.90393 2.36505,-11.83961 8.83126,-13.09765 5.90392,-1.14865 11.66786,2.98202 12.8165,8.88595 1.25804,6.46621 -2.64618,11.89431 -8.55011,13.04295 m -48.4929,-28.7888 c 1.14864,5.90393 -2.98202,11.66787 -8.88595,12.81651 -5.90393,1.14864 -11.89431,-2.64619 -13.04295,-8.55011 -1.14865,-5.90393 2.92732,-11.94901 8.83125,-13.09765 5.90393,-1.14865 11.94901,2.92732 13.09765,8.83125 m 53.57975,54.9348 c -6.46621,1.25804 -11.949,-2.92733 -13.09764,-8.83126 -1.20335,-6.18506 2.41974,-11.55847 8.88595,-12.8165 5.90393,-1.14865 11.55847,2.41974 12.76181,8.60481 1.14864,5.90393 -2.64619,11.89431 -8.55012,13.04295 m 13.63697,13.10305 c 1.14865,5.90393 -2.70088,11.61316 -8.60481,12.76181 -6.46621,1.25804 -11.89431,-2.64619 -13.04295,-8.55012 -1.14864,-5.90393 2.36505,-11.83961 8.83125,-13.09764 5.90393,-1.14865 11.66787,2.98202 12.81651,8.88595 m -3.51796,38.90781 c -6.4662,1.25803 -11.83961,-2.36505 -13.09764,-8.83126 -1.14865,-5.90393 2.36504,-11.83961 8.83125,-13.09765 5.90393,-1.14864 11.66787,2.98203 12.81651,8.88596 1.25804,6.4662 -2.64619,11.8943 -8.55012,13.04295 m 5.08686,26.146 c -6.46621,1.25803 -11.94901,-2.92733 -13.09765,-8.83126 -1.14864,-5.90393 2.41974,-11.55847 8.88595,-12.81651 5.90393,-1.14864 11.61317,2.70089 12.76181,8.60481 1.14865,5.90393 -2.64618,11.89431 -8.55011,13.04296"
         style="font-size:286.41119385px;font-style:normal;font-variant:normal;font-weight:normal;font-stretch:normal;fill:#8cff00;fill-opacity:1;font-family:Budmo;-inkscape-font-specification:Budmo"
         id="path3794"
         inkscape:connector-curvature="0" />
      <path
         d="m -544.2104,916.66806 -28.33813,-177.90987 -55.15489,8.78527 10.27201,64.48879 -40.16408,6.39749 -10.27201,-64.4888 -55.15489,8.78527 28.33814,177.90988 55.15489,-8.78527 -10.67749,-67.03441 40.16408,-6.39748 10.67748,67.03441 55.15489,-8.78528 m -40.85612,-152.71422 c 0.94611,5.93975 -3.09638,11.51403 -9.03613,12.46013 -5.93975,0.94611 -11.79687,-3.05133 -12.74298,-8.99108 -0.9461,-5.93975 3.33417,-11.84192 9.27393,-12.78803 5.93975,-0.9461 11.55908,3.37923 12.50518,9.31898 m -4.84623,38.76477 c -5.93975,0.94611 -11.75182,-2.76848 -12.78803,-9.27392 -0.94611,-5.93975 3.33417,-11.84193 9.27392,-12.78803 5.93975,-0.94611 11.55908,3.37922 12.50519,9.31897 1.03621,6.50544 -3.05133,11.79688 -8.99108,12.74298 m 4.1899,26.30464 c -5.93975,0.94611 -11.84193,-3.33417 -12.78803,-9.27392 -0.99116,-6.2226 3.37922,-11.55908 9.31897,-12.50519 5.93976,-0.9461 11.46898,2.81353 12.46014,9.03613 0.9461,5.93975 -3.05133,11.79688 -8.99108,12.74298 m 13.18098,13.56166 c 0.9461,5.93975 -3.09638,11.51403 -9.03613,12.46014 -5.93975,0.9461 -11.79688,-3.05133 -12.74298,-8.99108 -0.94611,-5.93975 3.33417,-11.84193 9.27392,-12.78804 5.93975,-0.9461 11.55908,3.37923 12.50519,9.31898 m -33.58851,2.15986 c -5.93976,0.94611 -11.75183,-2.76848 -12.78804,-9.27392 -0.9461,-5.93975 3.33417,-11.84193 9.27393,-12.78803 6.22259,-0.99116 11.55908,3.37922 12.50518,9.31897 1.03621,6.50545 -2.76848,11.75183 -8.99107,12.74298 m -75.10364,-65.47302 c 0.94611,5.93975 -3.09638,11.51403 -9.03613,12.46013 -5.93975,0.94611 -11.79687,-3.05132 -12.74298,-8.99107 -0.9461,-5.93976 3.33417,-11.84193 9.27392,-12.78804 5.93976,-0.9461 11.55909,3.37923 12.50519,9.31898 m 103.84592,102.07793 c -5.93975,0.94611 -11.75182,-2.76848 -12.78803,-9.27392 -0.94611,-5.93975 3.33417,-11.84193 9.27392,-12.78803 5.93975,-0.94611 11.55908,3.37922 12.50519,9.31898 1.03621,6.50544 -3.05133,11.79687 -8.99108,12.74297 m -44.92446,-45.3382 c 1.03621,6.50544 -3.33418,11.84193 -9.27393,12.78803 -5.93975,0.94611 -11.75182,-2.76848 -12.78803,-9.27392 -0.94611,-5.93975 3.33417,-11.84193 9.27392,-12.78803 5.93975,-0.94611 11.84193,3.33417 12.78804,9.27392 m -63.76769,-17.97496 c -5.93975,0.94611 -11.75182,-2.76848 -12.78803,-9.27392 -0.94611,-5.93975 3.33417,-11.84193 9.27392,-12.78803 5.93975,-0.94611 11.55908,3.37922 12.50519,9.31897 1.03621,6.50545 -3.05133,11.79688 -8.99108,12.74298 m 112.88205,89.6178 c -5.93975,0.94611 -11.84193,-3.33417 -12.78804,-9.27392 -0.9461,-5.93975 3.37923,-11.55908 9.31898,-12.50519 5.93975,-0.9461 11.51403,3.09638 12.46014,9.03613 0.9461,5.93976 -3.05133,11.79688 -8.99108,12.74298 m -83.2787,-54.89017 c -6.50544,1.03621 -11.75182,-2.76848 -12.78803,-9.27392 -0.94611,-5.93975 2.76848,-11.75182 9.27392,-12.78804 5.93975,-0.9461 11.55908,3.37923 12.50519,9.31898 1.03621,6.50544 -3.05133,11.79688 -8.99108,12.74298 m -25.41345,-8.42299 c -5.93975,0.94611 -11.84193,-3.33417 -12.78803,-9.27392 -0.99116,-6.2226 3.37922,-11.55908 9.31897,-12.50519 5.93976,-0.9461 11.46898,2.81354 12.46014,9.03613 0.9461,5.93975 -3.05133,11.79688 -8.99108,12.74298 m 13.18098,13.56166 c 0.9461,5.93975 -3.09638,11.51403 -9.03613,12.46014 -5.93975,0.9461 -11.79688,-3.05133 -12.74298,-8.99108 -0.94611,-5.93975 3.33417,-11.84193 9.27392,-12.78803 5.93975,-0.94611 11.55908,3.37922 12.50519,9.31897 m -4.84623,38.76478 c -5.93975,0.9461 -11.75182,-2.76848 -12.78804,-9.27393 -0.9461,-5.93975 3.33418,-11.84192 9.27393,-12.78803 5.93975,-0.9461 11.55908,3.37923 12.50518,9.31898 1.03622,6.50544 -3.05132,11.79687 -8.99107,12.74298 m 4.1899,26.30464 c -5.93975,0.9461 -11.84193,-3.33417 -12.78804,-9.27393 -0.9461,-5.93975 3.37923,-11.55908 9.31898,-12.50518 5.93975,-0.94611 11.51403,3.09638 12.46013,9.03613 0.94611,5.93975 -3.05132,11.79687 -8.99107,12.74298"
         style="font-size:286.41119385px;font-style:normal;font-variant:normal;font-weight:normal;font-stretch:normal;fill:#00ff96;fill-opacity:1;font-family:Budmo;-inkscape-font-specification:Budmo"
         id="path3796"
         inkscape:connector-curvature="0" />
      <path
         d="m -329.06385,984.20933 45.99222,-174.18292 -59.26096,-15.64759 -58.92342,69.45876 -15.01433,-88.9817 -61.1994,-16.15942 -45.99222,174.18292 50.67643,13.38088 23.32515,-88.3376 19.77641,112.45615 73.41507,-88.44181 -23.47138,88.89144 50.67643,13.38089 m 24.35819,-156.19711 c -1.53551,5.81532 -7.76312,9.20682 -13.57844,7.67131 -6.36916,-1.68175 -9.55686,-7.55931 -8.02135,-13.37464 1.53551,-5.81532 7.2824,-9.62998 13.65156,-7.94823 5.81532,1.53551 9.48374,7.83624 7.94823,13.65156 m -6.727,25.47668 c -1.68175,6.36916 -7.83624,9.48374 -13.65156,7.94823 -6.36916,-1.68175 -9.62998,-7.2824 -7.94823,-13.65156 1.53551,-5.81532 7.28239,-9.62998 13.65156,-7.94823 5.81532,1.53551 9.48374,7.83623 7.94823,13.65156 m -34.30701,-11.42844 c -6.36917,-1.68174 -9.48375,-7.83623 -7.94824,-13.65155 1.53551,-5.81533 7.2824,-9.62998 13.65156,-7.94823 5.81533,1.5355 9.20682,7.76311 7.67131,13.57843 -1.53551,5.81533 -7.55931,9.55686 -13.37463,8.02135 m 27.50688,37.18203 c -1.5355,5.81532 -7.83623,9.48374 -13.65155,7.94823 -6.36917,-1.68175 -9.48374,-7.83623 -7.94823,-13.65156 1.60862,-6.09224 7.20927,-9.35306 13.57843,-7.67131 5.81533,1.53551 9.62998,7.2824 8.02135,13.37464 m -31.07419,-24.79373 c -1.68175,6.36916 -7.83623,9.48374 -13.65156,7.94823 -6.36916,-1.68175 -9.62998,-7.28239 -7.94823,-13.65156 1.53551,-5.81532 7.2824,-9.62998 13.65156,-7.94823 5.81532,1.53551 9.48374,7.83624 7.94823,13.65156 m 24.27407,50.54733 c -1.53551,5.81532 -7.76311,9.20682 -13.57844,7.67131 -6.36916,-1.68175 -9.55686,-7.55932 -8.02135,-13.37464 1.53551,-5.81532 7.2824,-9.62998 13.65156,-7.94823 5.81532,1.53551 9.48374,7.83623 7.94823,13.65156 m -6.727,25.47667 c -1.68175,6.36916 -7.83624,9.48374 -13.65156,7.94823 -6.36916,-1.68175 -9.62998,-7.28239 -7.94823,-13.65156 1.53551,-5.81532 7.2824,-9.62998 13.65156,-7.94823 5.81532,1.53551 9.48374,7.83624 7.94823,13.65156 m -34.83905,-55.41055 c -1.53551,5.81532 -7.48619,9.27994 -13.30152,7.74443 -5.81532,-1.53551 -9.48374,-7.83623 -8.02135,-13.37464 1.68175,-6.36916 7.83624,-9.48374 13.65156,-7.94823 5.81532,1.53551 9.35306,7.20928 7.67131,13.57844 m 28.03893,81.16415 c -1.53551,5.81532 -7.83624,9.48374 -13.65156,7.94823 -6.36916,-1.68175 -9.48374,-7.83624 -7.94823,-13.65156 1.53551,-5.81532 7.20928,-9.35306 13.57844,-7.67131 5.81532,1.53551 9.55686,7.55932 8.02135,13.37464 m -86.57333,-146.68231 c -1.53551,5.81532 -7.2824,9.62998 -13.65156,7.94823 -5.81533,-1.53551 -9.20682,-7.76311 -7.67131,-13.57844 1.53551,-5.81532 7.55931,-9.55686 13.37463,-8.02135 6.36917,1.68175 9.48375,7.83624 7.94824,13.65156 m 41.9425,85.72401 c -1.53551,5.81532 -7.83623,9.48374 -13.65156,7.94823 -5.81532,-1.53551 -9.48374,-7.83624 -7.94823,-13.65156 1.53551,-5.81532 7.83624,-9.48374 13.65156,-7.94823 5.5384,1.46239 9.41062,8.11316 7.94823,13.65156 m -62.7442,-104.54683 c -1.53551,5.81532 -7.20927,9.35306 -13.57844,7.67131 -5.81532,-1.53551 -9.55686,-7.55931 -8.02135,-13.37464 1.53551,-5.81532 7.83624,-9.48374 13.65156,-7.94823 6.36917,1.68175 9.48374,7.83624 7.94823,13.65156 m 25.73647,45.00892 c -1.68175,6.36916 -7.2824,9.62998 -13.65156,7.94823 -5.81533,-1.53551 -9.62998,-7.2824 -7.94823,-13.65156 1.53551,-5.81532 7.83623,-9.48374 13.65155,-7.94823 6.36917,1.68175 9.48375,7.83624 7.94824,13.65156 m 4.58473,26.38989 c -1.46239,5.53841 -7.76312,9.20682 -13.57844,7.67131 -5.81533,-1.53551 -9.27994,-7.48619 -7.74443,-13.30151 1.68174,-6.36917 7.55931,-9.55686 13.37463,-8.02135 6.36917,1.68174 9.62998,7.28239 7.94824,13.65155 m 4.73096,25.83606 c -1.53551,5.81532 -7.28239,9.62998 -13.65155,7.94823 -5.81533,-1.53551 -9.48375,-7.83624 -7.94824,-13.65156 1.4624,-5.5384 8.11316,-9.41062 13.65156,-7.94823 6.36917,1.68175 9.48374,7.83624 7.94823,13.65156 m -41.77916,-71.75819 c -1.68175,6.36916 -7.28239,9.62998 -13.65156,7.94823 -5.81532,-1.53551 -9.62998,-7.2824 -7.94823,-13.65156 1.53551,-5.81532 7.83624,-9.48374 13.65156,-7.94823 6.36916,1.68175 9.48374,7.83623 7.94823,13.65156 m 48.65238,98.45612 c -1.68175,6.36916 -7.2824,9.62998 -13.65156,7.94823 -5.81532,-1.53551 -9.62998,-7.28239 -7.94823,-13.65156 1.53551,-5.81532 7.83623,-9.48374 13.65156,-7.94823 6.36916,1.68175 9.48374,7.83624 7.94823,13.65156 m -55.4525,-72.70253 c -1.53551,5.81532 -7.2824,9.62998 -13.65156,7.94823 -5.81532,-1.53551 -9.48374,-7.83623 -7.94823,-13.65156 1.60863,-6.09224 7.76312,-9.20682 13.57844,-7.67131 6.36916,1.68175 9.62998,7.2824 8.02135,13.37464 m -6.80012,25.7536 c -1.53551,5.81532 -7.20928,9.35306 -13.57844,7.67131 -5.81532,-1.53551 -9.55686,-7.55932 -8.02135,-13.37464 1.53551,-5.81532 7.83624,-9.48374 13.65156,-7.94823 6.36916,1.68175 9.48374,7.83623 7.94823,13.65156 m -6.727,25.47667 c -1.68175,6.36916 -7.2824,9.62998 -13.65156,7.94823 -5.81532,-1.53551 -9.62998,-7.28239 -7.94823,-13.65156 1.53551,-5.81532 7.83623,-9.48374 13.65156,-7.94823 6.36916,1.68175 9.48374,7.83624 7.94823,13.65156 m -6.80013,25.7536 c -1.53551,5.81532 -7.28239,9.62998 -13.65155,7.94823 -5.81533,-1.53551 -9.48374,-7.83624 -7.94824,-13.65156 1.53551,-5.81532 7.76312,-9.20682 13.57844,-7.67131 6.36917,1.68175 9.55686,7.55932 8.02135,13.37464"
         style="font-size:286.41119385px;font-style:normal;font-variant:normal;font-weight:normal;font-stretch:normal;fill:#0080ff;fill-opacity:1;font-family:Budmo;-inkscape-font-specification:Budmo"
         id="path3798"
         inkscape:connector-curvature="0" />
    </g>
    <path
       style="fill:none;stroke:#000000;stroke-width:1px;stroke-linecap:butt;stroke-linejoin:miter;stroke-opacity:1"
       d="m -1343.503,996.3157 c 0,0 150.4213,-45.51942 263.4664,-67.92542 102.2279,-20.26195 168.17395,64.54236 263.4665,64.54236 97.1031,0 159.20007,-85.18451 263.46642,-64.54236 115.81812,22.92912 263.46642,69.7568 263.46642,69.7568"
       id="path3765"
       inkscape:connector-curvature="0"
       sodipodi:nodetypes="csssc" />
    <g
       style="fill:#262626;fill-opacity:1;filter:url(#filter3941)"
       id="g3917">
      <text
         transform="scale(0.8871176,1.1272463)"
         sodipodi:linespacing="125%"
         id="text3919"
         y="459.96017"
         x="37.508015"
         style="font-size:24.03165627px;font-style:normal;font-variant:normal;font-weight:normal;font-stretch:normal;line-height:125%;letter-spacing:0px;word-spacing:0px;fill:#262626;fill-opacity:1;stroke:none;font-family:Arial;-inkscape-font-specification:Arial"
         xml:space="preserve"><tspan
           style="font-size:90.11871338px;font-style:normal;font-variant:normal;font-weight:normal;font-stretch:normal;fill:#262626;fill-opacity:1;font-family:Visitor TT2 BRK;-inkscape-font-specification:Visitor TT2 BRK"
           y="459.96017"
           x="37.508015"
           id="tspan3921"
           sodipodi:role="line">A </tspan><tspan
           style="font-size:90.11871338px;font-style:normal;font-variant:normal;font-weight:normal;font-stretch:normal;fill:#262626;fill-opacity:1;font-family:Visitor TT2 BRK;-inkscape-font-specification:Visitor TT2 BRK"
           id="tspan3923"
           y="572.60858"
           x="37.508015"
           sodipodi:role="line" /></text>
      <text
         transform="scale(0.9235531,1.0827748)"
         sodipodi:linespacing="125%"
         id="text3925"
         y="619.85577"
         x="430.99374"
         style="font-size:84.05610657px;font-style:normal;font-variant:normal;font-weight:normal;font-stretch:normal;line-height:125%;letter-spacing:0px;word-spacing:0px;fill:#262626;fill-opacity:1;stroke:none;font-family:Visitor TT2 BRK;-inkscape-font-specification:Visitor TT2 BRK"
         xml:space="preserve"><tspan
           style="font-style:normal;font-variant:normal;font-weight:normal;font-stretch:normal;fill:#262626;fill-opacity:1;font-family:Visitor TT2 BRK;-inkscape-font-specification:Visitor TT2 BRK"
           y="619.85577"
           x="430.99374"
           id="tspan3927"
           sodipodi:role="line">To The Past</tspan></text>
    </g>
    <rect
       y="463.28046"
       x="618.92047"
       height="116.49314"
       width="170.31161"
       id="rect4273"
       style="fill:#3b3b3b;fill-opacity:1;stroke:#ffffff;stroke-width:1;stroke-opacity:1;stroke-miterlimit:4;stroke-dasharray:2,2;stroke-dashoffset:0" />
    <rect
       y="512.94073"
       x="-148.49243"
       height="76.771591"
       width="76.771591"
       id="rect4170"
       style="fill:#000000;fill-opacity:1;stroke:none;filter:url(#filter4180)"
       transform="matrix(0.17719139,0,0,0.17719139,723.58622,449.27218)" />
    <rect
       style="fill:#939393;fill-opacity:1;stroke:none;filter:url(#filter4176)"
       id="rect4157"
       width="76.771591"
       height="76.771591"
       x="-148.49243"
       y="512.94073"
       transform="matrix(0.17719139,0,0,0.17719139,723.58622,449.27218)" />
    <path
       style="fill:none;stroke:#000000;stroke-width:20.45629501;stroke-linecap:round;stroke-linejoin:round;stroke-miterlimit:4;stroke-opacity:1;stroke-dasharray:none;filter:url(#filter4196)"
       d="m -128.28937,254.52783 0,-66.67007 -23.73859,23.73859"
       id="path4159"
       inkscape:connector-curvature="0"
       transform="matrix(0.09776942,0,0,0.09776942,716.67641,525.3366)" />
    <path
       style="fill:none;stroke:#000000;stroke-width:20.45629501;stroke-linecap:round;stroke-linejoin:miter;stroke-miterlimit:4;stroke-opacity:1;stroke-dasharray:none;filter:url(#filter4196)"
       d="m -128.20009,640.3029 22.4759,23.64032"
       id="path4161"
       inkscape:connector-curvature="0"
       transform="matrix(0.09776942,0,0,0.09776942,716.67641,481.10941)" />
    <path
       inkscape:connector-curvature="0"
       id="path4269"
       d="m -147.20247,663.0342 36.96403,0.82336"
       style="fill:none;stroke:#000000;stroke-width:20.45629501;stroke-linecap:round;stroke-linejoin:miter;stroke-miterlimit:4;stroke-opacity:1;stroke-dasharray:none;filter:url(#filter4196)"
       transform="matrix(0.09776942,0,0,0.09776942,716.67641,481.10941)" />
    <g
       transform="matrix(-0.17719139,0,0,-0.17719139,684.56628,662.19492)"
       id="use4261">
      <rect
         y="512.94073"
         x="-148.49243"
         height="76.771591"
         width="76.771591"
         id="rect4076"
         style="fill:#000000;fill-opacity:1;stroke:none;filter:url(#filter4180)" />
      <rect
         style="fill:#939393;fill-opacity:1;stroke:none;filter:url(#filter4176)"
         id="rect4078"
         width="76.771591"
         height="76.771591"
         x="-148.49243"
         y="512.94073" />
      <g
         id="g4080"
         transform="matrix(0.55177299,0,0,0.55177299,-38.996299,179.67709)"
         style="stroke-width:5;stroke-miterlimit:4;stroke-dasharray:none;filter:url(#filter4196)">
        <path
           transform="translate(0,452.36218)"
           inkscape:connector-curvature="0"
           id="path4082"
           d="m -128.28937,254.52783 0,-66.67007 -23.73859,23.73859"
           style="fill:none;stroke:#000000;stroke-width:20.45629501;stroke-linecap:round;stroke-linejoin:round;stroke-miterlimit:4;stroke-opacity:1;stroke-dasharray:none" />
        <path
           inkscape:connector-curvature="0"
           id="path4084"
           d="m -128.20009,640.3029 22.4759,23.64032"
           style="fill:none;stroke:#000000;stroke-width:20.45629501;stroke-linecap:round;stroke-linejoin:miter;stroke-miterlimit:4;stroke-opacity:1;stroke-dasharray:none" />
        <path
           style="fill:none;stroke:#000000;stroke-width:20.45629501;stroke-linecap:round;stroke-linejoin:miter;stroke-miterlimit:4;stroke-opacity:1;stroke-dasharray:none"
           d="m -147.20247,663.0342 36.96403,0.82336"
           id="path4086"
           inkscape:connector-curvature="0" />
      </g>
    </g>
    <g
       transform="matrix(0,-0.17719139,0.17719139,0,588.46069,544.99468)"
       id="use4265">
      <rect
         y="512.94073"
         x="-148.49243"
         height="76.771591"
         width="76.771591"
         id="rect4062"
         style="fill:#000000;fill-opacity:1;stroke:none;filter:url(#filter4180)" />
      <rect
         style="fill:#939393;fill-opacity:1;stroke:none;filter:url(#filter4176)"
         id="rect4064"
         width="76.771591"
         height="76.771591"
         x="-148.49243"
         y="512.94073" />
      <g
         id="g4066"
         transform="matrix(0.55177299,0,0,0.55177299,-38.996299,179.67709)"
         style="stroke-width:5;stroke-miterlimit:4;stroke-dasharray:none;filter:url(#filter4196)">
        <path
           transform="translate(0,452.36218)"
           inkscape:connector-curvature="0"
           id="path4068"
           d="m -128.28937,254.52783 0,-66.67007 -23.73859,23.73859"
           style="fill:none;stroke:#000000;stroke-width:20.45629501;stroke-linecap:round;stroke-linejoin:round;stroke-miterlimit:4;stroke-opacity:1;stroke-dasharray:none" />
        <path
           inkscape:connector-curvature="0"
           id="path4070"
           d="m -128.20009,640.3029 22.4759,23.64032"
           style="fill:none;stroke:#000000;stroke-width:20.45629501;stroke-linecap:round;stroke-linejoin:miter;stroke-miterlimit:4;stroke-opacity:1;stroke-dasharray:none" />
        <path
           style="fill:none;stroke:#000000;stroke-width:20.45629501;stroke-linecap:round;stroke-linejoin:miter;stroke-miterlimit:4;stroke-opacity:1;stroke-dasharray:none"
           d="m -147.20247,663.0342 36.96403,0.82336"
           id="path4072"
           inkscape:connector-curvature="0" />
      </g>
    </g>
    <g
       transform="matrix(0,0.17719139,-0.17719139,0,819.69192,584.01454)"
       id="use4267">
      <rect
         y="512.94073"
         x="-148.49243"
         height="76.771591"
         width="76.771591"
         id="rect4048"
         style="fill:#000000;fill-opacity:1;stroke:none;filter:url(#filter4180)" />
      <rect
         style="fill:#939393;fill-opacity:1;stroke:none;filter:url(#filter4176)"
         id="rect4050"
         width="76.771591"
         height="76.771591"
         x="-148.49243"
         y="512.94073" />
      <g
         id="g4052"
         transform="matrix(0.55177299,0,0,0.55177299,-38.996299,179.67709)"
         style="stroke-width:5;stroke-miterlimit:4;stroke-dasharray:none;filter:url(#filter4196)">
        <path
           transform="translate(0,452.36218)"
           inkscape:connector-curvature="0"
           id="path4054"
           d="m -128.28937,254.52783 0,-66.67007 -23.73859,23.73859"
           style="fill:none;stroke:#000000;stroke-width:20.45629501;stroke-linecap:round;stroke-linejoin:round;stroke-miterlimit:4;stroke-opacity:1;stroke-dasharray:none" />
        <path
           inkscape:connector-curvature="0"
           id="path4056"
           d="m -128.20009,640.3029 22.4759,23.64032"
           style="fill:none;stroke:#000000;stroke-width:20.45629501;stroke-linecap:round;stroke-linejoin:miter;stroke-miterlimit:4;stroke-opacity:1;stroke-dasharray:none" />
        <path
           style="fill:none;stroke:#000000;stroke-width:20.45629501;stroke-linecap:round;stroke-linejoin:miter;stroke-miterlimit:4;stroke-opacity:1;stroke-dasharray:none"
           d="m -147.20247,663.0342 36.96403,0.82336"
           id="path4058"
           inkscape:connector-curvature="0" />
      </g>
    </g>
    <text
       transform="scale(0.89137389,1.1218637)"
       sodipodi:linespacing="125%"
       id="text4384"
       y="436.08429"
       x="789.65411"
       style="font-size:29.55647086999999829px;font-style:normal;font-variant:normal;font-weight:normal;font-stretch:normal;text-align:center;line-height:125%;letter-spacing:0px;word-spacing:0px;text-anchor:middle;fill:#ffffff;fill-opacity:1;stroke:none;font-family:Arial;-inkscape-font-specification:Arial"
       xml:space="preserve"><tspan
         id="tspan4388"
         style="font-size:20px;font-style:normal;font-variant:normal;font-weight:bold;font-stretch:normal;text-align:center;text-anchor:middle;font-family:Visitor TT1 BRK;-inkscape-font-specification:Visitor TT1 BRK Bold;fill:#ffffff;fill-opacity:1"
         y="436.08429"
         x="795.65021"
         sodipodi:role="line">Utilises tes </tspan><tspan
         dy="-7.0710678"
         id="tspan4390"
         style="font-size:20px;font-style:normal;font-variant:normal;font-weight:bold;font-stretch:normal;text-align:center;text-anchor:middle;font-family:Visitor TT1 BRK;-inkscape-font-specification:Visitor TT1 BRK Bold;fill:#ffffff;fill-opacity:1"
         y="461.08429"
         x="795.65021"
         sodipodi:role="line">flèches ET joue </tspan><tspan
         dy="-14.142136"
         id="tspan3140"
         style="font-size:20px;font-style:normal;font-variant:normal;font-weight:bold;font-stretch:normal;text-align:center;text-anchor:middle;font-family:Visitor TT1 BRK;-inkscape-font-specification:Visitor TT1 BRK Bold;fill:#ffffff;fill-opacity:1"
         y="486.08429"
         x="789.65411"
         sodipodi:role="line">en rythme</tspan></text>
    <path
       style="fill:none;stroke:#ffffff;stroke-width:1px;stroke-linecap:butt;stroke-linejoin:miter;stroke-opacity:1"
       d="m 1002.9767,748.69825 -1012.9734045,0"
       id="path3462"
       inkscape:connector-curvature="0" />
    <path
       inkscape:connector-curvature="0"
       id="path3083"
       d="m 1024.1772,773.27905 -1034.278725,0"
       style="fill:none;stroke:#ffffff;stroke-width:1px;stroke-linecap:butt;stroke-linejoin:miter;stroke-opacity:1" />
    <path
       style="fill:none;stroke:#ffffff;stroke-width:0.99999994px;stroke-linecap:butt;stroke-linejoin:miter;stroke-opacity:1"
       d="m 1008.0244,797.96465 -1018.125925,0"
       id="path3085"
       inkscape:connector-curvature="0" />
    <path
       inkscape:connector-curvature="0"
       id="path3087"
       d="m 1033.2637,822.65024 -1043.362815,0"
       style="fill:none;stroke:#ffffff;stroke-width:1px;stroke-linecap:butt;stroke-linejoin:miter;stroke-opacity:1" />
    <path
       style="fill:none;stroke:#ffffff;stroke-width:0.99999994px;stroke-linecap:butt;stroke-linejoin:miter;stroke-opacity:1"
       d="m 1013.0721,847.44665 -1023.06278,0"
       id="path3089"
       inkscape:connector-curvature="0" />
    <path
       sodipodi:type="arc"
       style="fill:#000000;fill-opacity:1;stroke:#ffffff;stroke-width:6.9375;stroke-linecap:round;stroke-linejoin:miter;stroke-miterlimit:4;stroke-opacity:1;stroke-dasharray:none;stroke-dashoffset:0"
       id="path3156"
       sodipodi:cx="310.71429"
       sodipodi:cy="490"
       sodipodi:rx="26.428572"
       sodipodi:ry="26.428572"
       d="m 337.14287,490 c 0,14.5961 -11.83248,26.42857 -26.42858,26.42857 -14.59609,0 -26.42857,-11.83247 -26.42857,-26.42857 0,-14.5961 11.83248,-26.42857 26.42857,-26.42857 14.5961,0 26.42858,11.83247 26.42858,26.42857 z"
       transform="matrix(0.43243244,0,0,0.43243244,-98.648648,536.89885)" />
    <path
       transform="matrix(0.43243244,0,0,0.43243244,-51.371868,536.89885)"
       d="m 337.14287,490 c 0,14.5961 -11.83248,26.42857 -26.42858,26.42857 -14.59609,0 -26.42857,-11.83247 -26.42857,-26.42857 0,-14.5961 11.83248,-26.42857 26.42857,-26.42857 14.5961,0 26.42858,11.83247 26.42858,26.42857 z"
       sodipodi:ry="26.428572"
       sodipodi:rx="26.428572"
       sodipodi:cy="490"
       sodipodi:cx="310.71429"
       id="path3926"
       style="fill:#000000;fill-opacity:1;stroke:#ffffff;stroke-width:6.9375;stroke-linecap:round;stroke-linejoin:miter;stroke-miterlimit:4;stroke-opacity:1;stroke-dasharray:none;stroke-dashoffset:0"
       sodipodi:type="arc" />
    <path
       sodipodi:type="arc"
       style="fill:#000000;fill-opacity:1;stroke:#ffffff;stroke-width:6.9375;stroke-linecap:round;stroke-linejoin:miter;stroke-miterlimit:4;stroke-opacity:1;stroke-dasharray:none;stroke-dashoffset:0"
       id="path3928"
       sodipodi:cx="310.71429"
       sodipodi:cy="490"
       sodipodi:rx="26.428572"
       sodipodi:ry="26.428572"
       d="m 337.14287,490 c 0,14.5961 -11.83248,26.42857 -26.42858,26.42857 -14.59609,0 -26.42857,-11.83247 -26.42857,-26.42857 0,-14.5961 11.83248,-26.42857 26.42857,-26.42857 14.5961,0 26.42858,11.83247 26.42858,26.42857 z"
       transform="matrix(0.43243244,0,0,0.43243244,-4.0950685,562.61314)" />
    <path
       transform="matrix(0.43243244,0,0,0.43243244,70.324563,635.47028)"
       d="m 337.14287,490 c 0,14.5961 -11.83248,26.42857 -26.42858,26.42857 -14.59609,0 -26.42857,-11.83247 -26.42857,-26.42857 0,-14.5961 11.83248,-26.42857 26.42857,-26.42857 14.5961,0 26.42858,11.83247 26.42858,26.42857 z"
       sodipodi:ry="26.428572"
       sodipodi:rx="26.428572"
       sodipodi:cy="490"
       sodipodi:cx="310.71429"
       id="path3930"
       style="fill:#000000;fill-opacity:1;stroke:#ffffff;stroke-width:6.9375;stroke-linecap:round;stroke-linejoin:miter;stroke-miterlimit:4;stroke-opacity:1;stroke-dasharray:none;stroke-dashoffset:0"
       sodipodi:type="arc" />
    <path
       sodipodi:type="arc"
       style="fill:#000000;fill-opacity:1;stroke:#ffffff;stroke-width:6.9375;stroke-linecap:round;stroke-linejoin:miter;stroke-miterlimit:4;stroke-opacity:1;stroke-dasharray:none;stroke-dashoffset:0"
       id="path3932"
       sodipodi:cx="310.71429"
       sodipodi:cy="490"
       sodipodi:rx="26.428572"
       sodipodi:ry="26.428572"
       d="m 337.14287,490 c 0,14.5961 -11.83248,26.42857 -26.42858,26.42857 -14.59609,0 -26.42857,-11.83247 -26.42857,-26.42857 0,-14.5961 11.83248,-26.42857 26.42857,-26.42857 14.5961,0 26.42858,11.83247 26.42858,26.42857 z"
       transform="matrix(0.43243244,0,0,0.43243244,117.60135,588.32742)" />
    <path
       transform="matrix(0.43243244,0,0,0.43243244,164.87813,563.32742)"
       d="m 337.14287,490 c 0,14.5961 -11.83248,26.42857 -26.42858,26.42857 -14.59609,0 -26.42857,-11.83247 -26.42857,-26.42857 0,-14.5961 11.83248,-26.42857 26.42857,-26.42857 14.5961,0 26.42858,11.83247 26.42858,26.42857 z"
       sodipodi:ry="26.428572"
       sodipodi:rx="26.428572"
       sodipodi:cy="490"
       sodipodi:cx="310.71429"
       id="path3934"
       style="fill:#000000;fill-opacity:1;stroke:#ffffff;stroke-width:6.9375;stroke-linecap:round;stroke-linejoin:miter;stroke-miterlimit:4;stroke-opacity:1;stroke-dasharray:none;stroke-dashoffset:0"
       sodipodi:type="arc" />
    <path
       sodipodi:type="arc"
       style="fill:#000000;fill-opacity:1;stroke:#ffffff;stroke-width:6.9375;stroke-linecap:round;stroke-linejoin:miter;stroke-miterlimit:4;stroke-opacity:1;stroke-dasharray:none;stroke-dashoffset:0"
       id="path3936"
       sodipodi:cx="310.71429"
       sodipodi:cy="490"
       sodipodi:rx="26.428572"
       sodipodi:ry="26.428572"
       d="m 337.14287,490 c 0,14.5961 -11.83248,26.42857 -26.42858,26.42857 -14.59609,0 -26.42857,-11.83247 -26.42857,-26.42857 0,-14.5961 11.83248,-26.42857 26.42857,-26.42857 14.5961,0 26.42858,11.83247 26.42858,26.42857 z"
       transform="matrix(0.43243244,0,0,0.43243244,212.1549,563.32742)" />
    <path
       sodipodi:type="arc"
       style="fill:#000000;fill-opacity:1;stroke:#ffffff;stroke-width:6.9375;stroke-linecap:round;stroke-linejoin:miter;stroke-miterlimit:4;stroke-opacity:1;stroke-dasharray:none;stroke-dashoffset:0"
       id="path3940"
       sodipodi:cx="310.71429"
       sodipodi:cy="490"
       sodipodi:rx="26.428572"
       sodipodi:ry="26.428572"
       d="m 337.14287,490 c 0,14.5961 -11.83248,26.42857 -26.42858,26.42857 -14.59609,0 -26.42857,-11.83247 -26.42857,-26.42857 0,-14.5961 11.83248,-26.42857 26.42857,-26.42857 14.5961,0 26.42858,11.83247 26.42858,26.42857 z"
       transform="matrix(0.43243244,0,0,0.43243244,299.56566,586.89884)" />
    <path
       transform="matrix(0.43243244,0,0,0.43243244,346.84244,566.89884)"
       d="m 337.14287,490 c 0,14.5961 -11.83248,26.42857 -26.42858,26.42857 -14.59609,0 -26.42857,-11.83247 -26.42857,-26.42857 0,-14.5961 11.83248,-26.42857 26.42857,-26.42857 14.5961,0 26.42858,11.83247 26.42858,26.42857 z"
       sodipodi:ry="26.428572"
       sodipodi:rx="26.428572"
       sodipodi:cy="490"
       sodipodi:cx="310.71429"
       id="path3942"
       style="fill:#000000;fill-opacity:1;stroke:#ffffff;stroke-width:6.9375;stroke-linecap:round;stroke-linejoin:miter;stroke-miterlimit:4;stroke-opacity:1;stroke-dasharray:none;stroke-dashoffset:0"
       sodipodi:type="arc" />
    <path
       sodipodi:type="arc"
       style="fill:#000000;fill-opacity:1;stroke:#ffffff;stroke-width:6.9375;stroke-linecap:round;stroke-linejoin:miter;stroke-miterlimit:4;stroke-opacity:1;stroke-dasharray:none;stroke-dashoffset:0"
       id="path3944"
       sodipodi:cx="310.71429"
       sodipodi:cy="490"
       sodipodi:rx="26.428572"
       sodipodi:ry="26.428572"
       d="m 337.14287,490 c 0,14.5961 -11.83248,26.42857 -26.42858,26.42857 -14.59609,0 -26.42857,-11.83247 -26.42857,-26.42857 0,-14.5961 11.83248,-26.42857 26.42857,-26.42857 14.5961,0 26.42858,11.83247 26.42858,26.42857 z"
       transform="matrix(0.43243244,0,0,0.43243244,394.11926,536.18456)" />
    <path
       transform="matrix(0.43243244,0,0,0.43243244,441.39601,584.75599)"
       d="m 337.14287,490 c 0,14.5961 -11.83248,26.42857 -26.42858,26.42857 -14.59609,0 -26.42857,-11.83247 -26.42857,-26.42857 0,-14.5961 11.83248,-26.42857 26.42857,-26.42857 14.5961,0 26.42858,11.83247 26.42858,26.42857 z"
       sodipodi:ry="26.428572"
       sodipodi:rx="26.428572"
       sodipodi:cy="490"
       sodipodi:cx="310.71429"
       id="path3946"
       style="fill:#000000;fill-opacity:1;stroke:#ffffff;stroke-width:6.9375;stroke-linecap:round;stroke-linejoin:miter;stroke-miterlimit:4;stroke-opacity:1;stroke-dasharray:none;stroke-dashoffset:0"
       sodipodi:type="arc" />
    <path
       transform="matrix(0.43243244,0,0,0.43243244,535.94954,609.75599)"
       d="m 337.14287,490 c 0,14.5961 -11.83248,26.42857 -26.42858,26.42857 -14.59609,0 -26.42857,-11.83247 -26.42857,-26.42857 0,-14.5961 11.83248,-26.42857 26.42857,-26.42857 14.5961,0 26.42858,11.83247 26.42858,26.42857 z"
       sodipodi:ry="26.428572"
       sodipodi:rx="26.428572"
       sodipodi:cy="490"
       sodipodi:cx="310.71429"
       id="path3950"
       style="fill:#000000;fill-opacity:1;stroke:#ffffff;stroke-width:6.9375;stroke-linecap:round;stroke-linejoin:miter;stroke-miterlimit:4;stroke-opacity:1;stroke-dasharray:none;stroke-dashoffset:0"
       sodipodi:type="arc" />
    <path
       sodipodi:type="arc"
       style="fill:#000000;fill-opacity:1;stroke:#ffffff;stroke-width:6.9375;stroke-linecap:round;stroke-linejoin:miter;stroke-miterlimit:4;stroke-opacity:1;stroke-dasharray:none;stroke-dashoffset:0"
       id="path3952"
       sodipodi:cx="310.71429"
       sodipodi:cy="490"
       sodipodi:rx="26.428572"
       sodipodi:ry="26.428572"
       d="m 337.14287,490 c 0,14.5961 -11.83248,26.42857 -26.42858,26.42857 -14.59609,0 -26.42857,-11.83247 -26.42857,-26.42857 0,-14.5961 11.83248,-26.42857 26.42857,-26.42857 14.5961,0 26.42858,11.83247 26.42858,26.42857 z"
       transform="matrix(0.43243244,0,0,0.43243244,580.91621,586.89885)" />
    <path
       transform="matrix(0.43243244,0,0,0.43243244,625.88298,564.04171)"
       d="m 337.14287,490 c 0,14.5961 -11.83248,26.42857 -26.42858,26.42857 -14.59609,0 -26.42857,-11.83247 -26.42857,-26.42857 0,-14.5961 11.83248,-26.42857 26.42857,-26.42857 14.5961,0 26.42858,11.83247 26.42858,26.42857 z"
       sodipodi:ry="26.428572"
       sodipodi:rx="26.428572"
       sodipodi:cy="490"
       sodipodi:cx="310.71429"
       id="path3954"
       style="fill:#000000;fill-opacity:1;stroke:#ffffff;stroke-width:6.9375;stroke-linecap:round;stroke-linejoin:miter;stroke-miterlimit:4;stroke-opacity:1;stroke-dasharray:none;stroke-dashoffset:0"
       sodipodi:type="arc" />
    <path
       sodipodi:type="arc"
       style="fill:#000000;fill-opacity:1;stroke:#ffffff;stroke-width:6.9375;stroke-linecap:round;stroke-linejoin:miter;stroke-miterlimit:4;stroke-opacity:1;stroke-dasharray:none;stroke-dashoffset:0"
       id="path3958"
       sodipodi:cx="310.71429"
       sodipodi:cy="490"
       sodipodi:rx="26.428572"
       sodipodi:ry="26.428572"
       d="m 337.14287,490 c 0,14.5961 -11.83248,26.42857 -26.42858,26.42857 -14.59609,0 -26.42857,-11.83247 -26.42857,-26.42857 0,-14.5961 11.83248,-26.42857 26.42857,-26.42857 14.5961,0 26.42858,11.83247 26.42858,26.42857 z"
       transform="matrix(0.43243244,0,0,0.43243244,670.84965,536.76759)" />
    <path
       transform="matrix(0.43243244,0,0,0.43243244,735.8163,564.04171)"
       d="m 337.14287,490 c 0,14.5961 -11.83248,26.42857 -26.42858,26.42857 -14.59609,0 -26.42857,-11.83247 -26.42857,-26.42857 0,-14.5961 11.83248,-26.42857 26.42857,-26.42857 14.5961,0 26.42858,11.83247 26.42858,26.42857 z"
       sodipodi:ry="26.428572"
       sodipodi:rx="26.428572"
       sodipodi:cy="490"
       sodipodi:cx="310.71429"
       id="path3960"
       style="fill:#000000;fill-opacity:1;stroke:#ffffff;stroke-width:6.9375;stroke-linecap:round;stroke-linejoin:miter;stroke-miterlimit:4;stroke-opacity:1;stroke-dasharray:none;stroke-dashoffset:0"
       sodipodi:type="arc" />
    <path
       sodipodi:type="arc"
       style="fill:#000000;fill-opacity:1;stroke:#ffffff;stroke-width:6.9375;stroke-linecap:round;stroke-linejoin:miter;stroke-miterlimit:4;stroke-opacity:1;stroke-dasharray:none;stroke-dashoffset:0"
       id="path3962"
       sodipodi:cx="310.71429"
       sodipodi:cy="490"
       sodipodi:rx="26.428572"
       sodipodi:ry="26.428572"
       d="m 337.14287,490 c 0,14.5961 -11.83248,26.42857 -26.42858,26.42857 -14.59609,0 -26.42857,-11.83247 -26.42857,-26.42857 0,-14.5961 11.83248,-26.42857 26.42857,-26.42857 14.5961,0 26.42858,11.83247 26.42858,26.42857 z"
       transform="matrix(0.43243244,0,0,0.43243244,780.78307,589.29552)" />
    <path
       transform="matrix(0.43243244,0,0,0.43243244,825.74976,637.78284)"
       d="m 337.14287,490 c 0,14.5961 -11.83248,26.42857 -26.42858,26.42857 -14.59609,0 -26.42857,-11.83247 -26.42857,-26.42857 0,-14.5961 11.83248,-26.42857 26.42857,-26.42857 14.5961,0 26.42858,11.83247 26.42858,26.42857 z"
       sodipodi:ry="26.428572"
       sodipodi:rx="26.428572"
       sodipodi:cy="490"
       sodipodi:cx="310.71429"
       id="path3964"
       style="fill:#000000;fill-opacity:1;stroke:#ffffff;stroke-width:6.9375;stroke-linecap:round;stroke-linejoin:miter;stroke-miterlimit:4;stroke-opacity:1;stroke-dasharray:none;stroke-dashoffset:0"
       sodipodi:type="arc" />
    <path
       sodipodi:type="arc"
       style="fill:#000000;fill-opacity:1;stroke:#ffffff;stroke-width:6.9375;stroke-linecap:round;stroke-linejoin:miter;stroke-miterlimit:4;stroke-opacity:1;stroke-dasharray:none;stroke-dashoffset:0"
       id="path3966"
       sodipodi:cx="310.71429"
       sodipodi:cy="490"
       sodipodi:rx="26.428572"
       sodipodi:ry="26.428572"
       d="m 337.14287,490 c 0,14.5961 -11.83248,26.42857 -26.42858,26.42857 -14.59609,0 -26.42857,-11.83247 -26.42857,-26.42857 0,-14.5961 11.83248,-26.42857 26.42857,-26.42857 14.5961,0 26.42858,11.83247 26.42858,26.42857 z"
       transform="matrix(0.43243244,0,0,0.43243244,870.71641,538.78789)" />
    <text
       xml:space="preserve"
       style="font-size:40px;font-style:normal;font-variant:normal;font-weight:normal;font-stretch:normal;line-height:125%;letter-spacing:0px;word-spacing:0px;fill:#000000;fill-opacity:1;stroke:none;font-family:Arial;-inkscape-font-specification:Arial"
       x="10"
       y="1013.7908"
       id="text3968"
       sodipodi:linespacing="125%"><tspan
         sodipodi:role="line"
         id="tspan3970"
         x="10"
         y="1013.7908"
         style="font-style:normal;font-variant:normal;font-weight:normal;font-stretch:normal;fill:#000000;fill-opacity:1;font-family:Visitor TT1 BRK;-inkscape-font-specification:Visitor TT1 BRK">A Game</tspan><tspan
         sodipodi:role="line"
         x="10"
         y="1063.7908"
         style="font-style:normal;font-variant:normal;font-weight:normal;font-stretch:normal;fill:#000000;fill-opacity:1;font-family:Visitor TT1 BRK;-inkscape-font-specification:Visitor TT1 BRK"
         id="tspan3972"
         dy="-20">By Blue112</tspan></text>
    <text
       xml:space="preserve"
       style="font-size:40px;font-style:normal;font-variant:normal;font-weight:normal;font-stretch:normal;text-align:start;line-height:125%;letter-spacing:0px;word-spacing:0px;text-anchor:start;fill:url(#linearGradient4846);fill-opacity:1;stroke:none;filter:url(#filter3994);font-family:Arial;-inkscape-font-specification:Arial"
       x="10.0625"
       y="1015.7908"
       id="text3984"
       sodipodi:linespacing="125%"
       inkscape:export-xdpi="89"
       inkscape:export-ydpi="89"><tspan
         sodipodi:role="line"
         x="116"
         y="1015.7908"
         style="font-style:normal;font-variant:normal;font-weight:normal;font-stretch:normal;text-align:start;text-anchor:start;fill:url(#linearGradient4846);fill-opacity:1;font-family:Visitor TT1 BRK;-inkscape-font-specification:Visitor TT1 BRK"
         id="tspan4840"><tspan
           dy="0 0 0 0 0 0 0 2.6381839e-09"
           id="tspan4842"
           style="font-style:normal;font-variant:normal;font-weight:normal;font-stretch:normal;text-align:start;text-anchor:start;fill:url(#linearGradient4846);fill-opacity:1;font-family:Visitor TT1 BRK;-inkscape-font-specification:Visitor TT1 BRK">A GaMe By</tspan></tspan><tspan
         sodipodi:role="line"
         x="116"
         y="1065.7908"
         style="font-style:normal;font-variant:normal;font-weight:normal;font-stretch:normal;text-align:start;text-anchor:start;fill:url(#linearGradient4846);fill-opacity:1;font-family:Visitor TT1 BRK;-inkscape-font-specification:Visitor TT1 BRK"
         id="tspan4844"
         dy="-20">Blue112</tspan></text>
    <text
       xml:space="preserve"
       style="font-size:40px;font-style:normal;font-variant:normal;font-weight:normal;font-stretch:normal;line-height:125%;letter-spacing:0px;word-spacing:0px;fill:#ffffff;fill-opacity:1;stroke:none;font-family:Visitor TT1 BRK;-inkscape-font-specification:Visitor TT1 BRK"
       x="551"
       y="1019.3622"
       id="text4014"
       sodipodi:linespacing="125%"><tspan
         sodipodi:role="line"
         id="tspan4016"
         x="551"
         y="1019.3622">Commencer la partie</tspan></text>
    <g
       id="g4828"
       style="fill:#ffffff;fill-opacity:1;stroke:#ffffff;stroke-linecap:butt;stroke-linejoin:bevel;stroke-opacity:1"
       transform="translate(11.203125,23)">
      <path
         style="font-size:medium;font-style:normal;font-variant:normal;font-weight:normal;font-stretch:normal;text-indent:0;text-align:start;text-decoration:none;line-height:normal;letter-spacing:normal;word-spacing:normal;text-transform:none;direction:ltr;block-progression:tb;writing-mode:lr-tb;text-anchor:start;baseline-shift:baseline;color:#000000;fill:#ffffff;fill-opacity:1;stroke:#ffffff;stroke-width:3.00000023999999987;stroke-linecap:butt;stroke-linejoin:bevel;stroke-opacity:1;marker:none;visibility:visible;display:inline;overflow:visible;enable-background:accumulate;font-family:Sans;-inkscape-font-specification:Sans;marker-mid:none"
         d="m 540.24999,1012.9663 0,2.7918 409.24999,0 0,-2.7918 -409.24999,0 z"
         id="path4018"
         inkscape:connector-curvature="0" />
      <path
         style="fill:#ffffff;fill-opacity:1;fill-rule:evenodd;stroke:#ffffff;stroke-width:0.8pt;stroke-linecap:butt;stroke-linejoin:bevel;stroke-opacity:1;marker-start:none"
         d="m 944,1014.3622 -12,12 42,-12 -42,-12 12,12 z"
         id="path4834"
         inkscape:connector-curvature="0" />
      <path
         style="fill:#ffffff;fill-opacity:1;fill-rule:evenodd;stroke:#ffffff;stroke-width:0.8pt;stroke-linecap:butt;stroke-linejoin:bevel;stroke-opacity:1;marker-start:none"
         d="m 642.5,1014.3622 -12,12 42,-12 -42,-12 12,12 z"
         id="path6140"
         inkscape:connector-curvature="0" />
      <path
         inkscape:connector-curvature="0"
         id="path6142"
         d="m 793.25,1014.3622 -12,12 42,-12 -42,-12 12,12 z"
         style="fill:#ffffff;fill-opacity:1;fill-rule:evenodd;stroke:#ffffff;stroke-width:0.8pt;stroke-linecap:butt;stroke-linejoin:bevel;stroke-opacity:1;marker-start:none" />
    </g>
    <path
       inkscape:connector-curvature="0"
       id="path3132"
       d="m 18.687505,981.96628 0,2.7918 205.437485,0 0,-2.7918 -205.437485,0 z"
       style="font-size:medium;font-style:normal;font-variant:normal;font-weight:normal;font-stretch:normal;text-indent:0;text-align:start;text-decoration:none;line-height:normal;letter-spacing:normal;word-spacing:normal;text-transform:none;direction:ltr;block-progression:tb;writing-mode:lr-tb;text-anchor:start;baseline-shift:baseline;color:#000000;fill:none;stroke:url(#linearGradient3943);stroke-width:3;stroke-linecap:butt;stroke-linejoin:bevel;stroke-miterlimit:4;stroke-opacity:1;stroke-dasharray:none;marker:none;visibility:visible;display:inline;overflow:visible;enable-background:accumulate;font-family:Sans;-inkscape-font-specification:Sans" />
    <path
       inkscape:connector-curvature="0"
       id="path3134"
       d="m 17.410726,983.36218 6.214289,-8.5 -21.750005,8.5 21.750005,8.5 -6.214289,-8.5 z"
       style="fill:url(#linearGradient3951);fill-opacity:1.0;fill-rule:evenodd;stroke:none;stroke-width:0.80000000000000004pt;stroke-linecap:butt;stroke-linejoin:bevel;stroke-opacity:1;marker-start:none" />
  </g>
</svg>
